<svg width="135" height="32" viewBox="0 0 135 32" fill="none" xmlns="http://www.w3.org/2000/svg">
<path d="M2.04235 0C2.07599 6.92997 10.5735 11.1383 17.1137 15.7718C23.1116 20.0212 21.2825 24.6103 20.3569 27.8448C21.1338 18.0692 11.9296 17.7517 4.41554 11.5967C-0.893049 7.2483 0.819105 1.81047 2.04235 0Z" fill="black"/>
<path d="M11.5705 25.5488C13.0324 25.847 12.8423 25.667 15.1158 25.5752C17.8005 25.4668 19.1975 26.8816 19.5608 27.6115C17.8891 26.7526 17.6988 26.573 15.4451 27.0453C13.642 27.4231 12.1107 26.2051 11.5705 25.5488Z" fill="black"/>
<path d="M4.73456 20.1461C7.26866 21.2522 8.50181 21.662 12.7872 21.9011C17.3929 22.1581 18.9461 25.0604 19.3832 26.3042C17.6756 24.6323 16.6408 23.9394 12.2934 23.8481C8.81557 23.7751 5.77226 21.3498 4.73456 20.1461Z" fill="black"/>
<path d="M0 11.5671C1.14436 12.6429 2.93416 15.1108 9.81283 17.2067C16.2357 19.1637 18.4514 21.9253 19.0802 24.3798C17.0698 21.3602 15.1591 20.7427 8.25717 19.1902C2.69709 17.9394 0.685259 14.0588 0 11.5671Z" fill="black"/>
<path d="M29.9293 15.8838V18.2364H32.4704V18.9959H29.9293V25.1275C29.9293 26.3871 30.393 26.9058 31.3575 26.9058C31.9139 26.9058 32.3035 26.7391 32.7857 26.3871L32.9898 26.665C32.4519 27.4615 31.5801 28.1284 30.3559 28.1284C28.9462 28.1284 27.8704 27.3689 27.8704 25.3498V18.9959H26.6648V18.6625C27.8148 18.0882 28.7793 17.0694 29.4841 15.8838H29.9293Z" fill="black"/>
<path d="M34.5441 26.5353V15.254L33.3755 14.6242V14.3463L36.3247 13.4386H36.6215V19.8295C37.4561 18.8848 38.532 18.0512 40.0158 18.0512C41.7408 18.0512 42.594 19.07 42.594 21.0892V26.5353C42.594 27.2207 42.8908 27.3504 43.8182 27.406V27.9432H39.2924V27.406C40.2199 27.3504 40.5166 27.2207 40.5166 26.5353V21.1262C40.5166 19.8851 40.0158 19.3294 38.9586 19.3294C38.0868 19.3294 37.2707 19.7739 36.6215 20.2926V26.5353C36.6215 27.2207 36.8997 27.3504 37.8271 27.406V27.9432H33.3199V27.406C34.2473 27.3504 34.5441 27.2207 34.5441 26.5353Z" fill="black"/>
<path d="M48.8212 18.0512C51.1954 18.0512 52.4382 19.6628 52.4382 21.8116V22.2006H46.3357C46.2245 25.0349 47.6527 26.6465 49.5261 26.6465C50.8245 26.6465 51.6406 26.0722 52.3083 25.0719L52.5494 25.2016C52.1043 26.9243 50.7874 28.1284 48.7656 28.1284C46.0946 28.1284 44.4624 26.0722 44.4624 23.3491C44.4624 20.2556 46.3543 18.0512 48.8212 18.0512ZM48.6543 18.681C47.3188 18.681 46.5398 19.9407 46.3914 21.6079H50.5091C50.5091 19.9036 49.9898 18.681 48.6543 18.681Z" fill="black"/>
<path d="M60.2973 21.2003V26.4612C60.2973 27.2022 60.7239 27.3319 61.911 27.406V27.9432H56.9957V27.406C57.9231 27.3504 58.2199 27.2207 58.2199 26.5353V19.9221L57.0513 19.2738V19.0145L60.0562 18.0512H60.3715L60.2973 20.7187C61.2618 18.7736 61.7441 18.0512 62.8199 18.0512C63.1723 18.0512 63.432 18.1809 63.5804 18.3476V20.0148H63.265C62.1336 20.0148 61.2989 20.0889 60.2973 21.2003Z" fill="black"/>
<path d="M68.4021 18.0512C70.7763 18.0512 72.019 19.6628 72.019 21.8116V22.2006H65.9166C65.8053 25.0349 67.2335 26.6465 69.1069 26.6465C70.4053 26.6465 71.2214 26.0722 71.8892 25.0719L72.1303 25.2016C71.6851 26.9243 70.3682 28.1284 68.3464 28.1284C65.6755 28.1284 64.0432 26.0722 64.0432 23.3491C64.0432 20.2556 65.9351 18.0512 68.4021 18.0512ZM68.2351 18.681C66.8997 18.681 66.1206 19.9407 65.9722 21.6079H70.09C70.09 19.9036 69.5706 18.681 68.2351 18.681Z" fill="black"/>
<path d="M76.5526 28.1284C75.2172 28.1284 74.0486 27.7579 73.3252 27.2207L73.2139 24.6644H73.8075C74.2526 26.313 75.1615 27.5542 76.5897 27.5542C77.647 27.5542 78.4631 27.017 78.4631 25.924C78.4631 24.8867 77.7768 24.4606 76.2002 23.8678C74.2897 23.1639 73.3438 22.4415 73.3438 20.8113C73.3438 19.0885 74.6236 18.0512 76.5712 18.0512C77.7397 18.0512 78.7043 18.3476 79.4833 18.8292V21.0707H78.9454C78.6115 19.6999 77.851 18.6254 76.5155 18.6254C75.4954 18.6254 74.9389 19.2182 74.9389 20.0703C74.9389 20.9966 75.5139 21.4411 77.072 22.0154C78.9639 22.7008 80.0954 23.4603 80.0954 25.146C80.0954 27.017 78.6857 28.1284 76.5526 28.1284Z" fill="black"/>
<path d="M84.4428 18.0512V26.5353C84.4428 27.2207 84.7396 27.3504 85.667 27.406V27.9432H81.1412V27.406C82.0686 27.3504 82.3654 27.2207 82.3654 26.5353V19.9221L81.1968 19.2738V19.0145L84.146 18.0512H84.4428ZM83.3484 16.736C82.588 16.736 82.0315 16.1432 82.0315 15.4393C82.0315 14.7168 82.588 14.124 83.3484 14.124C84.1089 14.124 84.6839 14.7168 84.6839 15.4393C84.6839 16.1432 84.1089 16.736 83.3484 16.736Z" fill="black"/>
<path d="M91.1253 18.6995C89.4374 18.6995 88.3801 20.3112 88.3801 22.7378C88.3801 24.9978 89.3632 26.7391 91.1995 26.7391C91.9785 26.7391 92.6091 26.4798 93.0914 25.9796V21.2374C93.0914 19.6443 92.3124 18.6995 91.1253 18.6995ZM93.0914 15.254L91.9229 14.6242V14.3463L94.8721 13.4386H95.1688V26.0722C95.1688 26.702 95.2059 26.8688 95.985 26.9429L96.4672 26.9799V27.4615L93.3882 28.1284H93.0172L93.0914 26.4057C92.3495 27.4245 91.4221 28.1284 90.1051 28.1284C87.8422 28.1284 86.3769 26.2575 86.3769 23.5529C86.3769 20.1259 88.3801 18.0697 90.9954 18.0697C91.9043 18.0697 92.6277 18.329 93.0914 18.7551V15.254Z" fill="black"/>
<path d="M101.478 18.0512C103.852 18.0512 105.095 19.6628 105.095 21.8116V22.2006H98.9921C98.8808 25.0349 100.309 26.6465 102.182 26.6465C103.481 26.6465 104.297 26.0722 104.965 25.0719L105.206 25.2016C104.761 26.9243 103.444 28.1284 101.422 28.1284C98.751 28.1284 97.1187 26.0722 97.1187 23.3491C97.1187 20.2556 99.0107 18.0512 101.478 18.0512ZM101.311 18.681C99.9752 18.681 99.1961 19.9407 99.0478 21.6079H103.165C103.165 19.9036 102.646 18.681 101.311 18.681Z" fill="black"/>
<path d="M113.099 26.5353V21.1262C113.099 19.8851 112.599 19.3294 111.541 19.3294C110.669 19.3294 109.853 19.7739 109.204 20.2926V26.5353C109.204 27.2207 109.501 27.3504 110.41 27.406V27.9432H105.903V27.406C106.83 27.3504 107.127 27.2207 107.127 26.5353V19.9221L105.958 19.2738V19.0145L108.963 18.0512H109.278L109.204 19.8295C110.039 18.8848 111.115 18.0512 112.599 18.0512C114.324 18.0512 115.177 19.033 115.177 21.0336V26.5353C115.177 27.2207 115.473 27.3504 116.401 27.406V27.9432H111.875V27.406C112.803 27.3504 113.099 27.2207 113.099 26.5353Z" fill="black"/>
<path d="M118.861 22.497C118.861 24.9422 120.011 26.5909 121.903 26.5909C123.109 26.5909 123.944 26.0537 124.556 25.1275L124.834 25.2571C124.259 27.1281 122.979 28.1284 121.199 28.1284C118.75 28.1284 117.025 26.2575 117.025 23.4232C117.025 20.3482 118.824 18.0512 121.662 18.0512C123.424 18.0512 124.574 18.7922 124.574 20.0889C124.574 20.6261 124.296 21.0707 123.925 21.2744H122.701C122.738 21.0336 122.775 20.7743 122.775 20.4408C122.775 19.5146 122.46 18.681 121.328 18.681C119.789 18.681 118.861 20.3482 118.861 22.497Z" fill="black"/>
<path d="M130.882 25.8314L133.09 19.9036C133.164 19.6813 133.201 19.5331 133.201 19.3849C133.201 18.9589 132.867 18.8848 131.921 18.7736V18.2364H135V18.7736C134.332 18.9404 134.202 19.0885 134.054 19.459L130.048 29.7956C129.491 31.2035 128.916 32 127.748 32C127.154 32 126.542 31.6666 126.375 31.1108V30.3884C126.727 30.481 127.006 30.5551 127.525 30.5551C128.527 30.5551 129.157 30.2772 129.584 29.1287L129.918 28.2396L126.078 19.459C125.911 19.07 125.8 18.9404 125.132 18.7736V18.2364H129.658V18.7736C128.712 18.8848 128.378 18.9589 128.378 19.3849C128.378 19.5331 128.415 19.6813 128.49 19.9036L130.882 25.8314Z" fill="black"/>
</svg>
